<mxfile host="Electron" modified="2024-07-03T08:00:59.909Z" agent="Mozilla/5.0 (Windows NT 10.0; Win64; x64) AppleWebKit/537.36 (KHTML, like Gecko) draw.io/23.0.2 Chrome/120.0.6099.109 Electron/28.1.0 Safari/537.36" version="23.0.2" etag="crl2R2YcW2L6Gj47BaP2" type="device">
  <diagram name="Page-1" id="-3j2pfLDaDNngqbUjOl0">
    <mxGraphModel dx="794" dy="559" grid="1" gridSize="10" guides="1" tooltips="1" connect="1" arrows="1" fold="1" page="1" pageScale="1" pageWidth="1100" pageHeight="850" math="0" shadow="0">
      <root>
        <mxCell id="0" />
        <mxCell id="1" parent="0" />
        <mxCell id="DC9UurBd0dNyP3FcQ84u-1" value="" style="shape=ext;double=1;rounded=1;whiteSpace=wrap;html=1;arcSize=5;fillColor=#00002B;strokeColor=#FFFFFF;" parent="1" vertex="1">
          <mxGeometry x="80" y="360" width="620" height="430" as="geometry" />
        </mxCell>
        <mxCell id="12" value="" style="shape=ellipse;fillColor=none;strokeColor=#FF0080;shadow=1;aspect=fixed;sketch=0;fontColor=#f4f1f1;" parent="1" vertex="1">
          <mxGeometry x="244" y="690" width="36" height="36" as="geometry" />
        </mxCell>
        <mxCell id="13" value="" style="dashed=0;html=1;shape=mxgraph.gmdl.plus;strokeColor=#FF0080;strokeWidth=2;shadow=0;sketch=0;fontColor=#f4f1f1;" parent="12" vertex="1">
          <mxGeometry x="12.857142857142858" y="12.857142857142858" width="10.285714285714286" height="10.285714285714286" as="geometry" />
        </mxCell>
        <mxCell id="14" value="Ajouter dataset" style="text;html=1;align=center;verticalAlign=middle;resizable=1;points=[];autosize=1;strokeColor=none;fillColor=none;fontColor=#f4f1f1;resizeHeight=0;resizeWidth=0;rounded=1;fontFamily=Times New Roman;fontSize=14;" parent="1" vertex="1">
          <mxGeometry x="125" y="693" width="110" height="30" as="geometry" />
        </mxCell>
        <mxCell id="18" value="&lt;b style=&quot;font-size: 14px;&quot;&gt;&lt;font color=&quot;#ffffff&quot; face=&quot;Times New Roman&quot; style=&quot;font-size: 14px;&quot;&gt;&lt;u style=&quot;&quot;&gt;TITLE OF&lt;/u&gt;&lt;span style=&quot;white-space: pre;&quot;&gt;&#x9;&lt;/span&gt;&lt;span style=&quot;white-space: pre;&quot;&gt;&#x9;&lt;/span&gt;&lt;span style=&quot;white-space: pre;&quot;&gt;&#x9;&lt;/span&gt;&lt;span style=&quot;white-space: pre;&quot;&gt;&#x9;&lt;span style=&quot;white-space: pre;&quot;&gt;&#x9;&lt;span style=&quot;white-space: pre;&quot;&gt;&#x9;&lt;/span&gt;&lt;/span&gt;&lt;/span&gt;LEGEND&lt;br&gt;&lt;u style=&quot;&quot;&gt;REPRESENTATION&lt;/u&gt;&lt;/font&gt;&lt;/b&gt;" style="html=1;shadow=0;shape=mxgraph.bootstrap.rrect;rSize=5;strokeColor=#FFFFFF;html=1;whiteSpace=wrap;fillColor=#ffffff;fontColor=#000000;verticalAlign=bottom;align=left;spacing=20;spacingBottom=50;fontSize=14;rounded=1;gradientColor=#00002B;horizontal=1;" parent="1" vertex="1">
          <mxGeometry x="340" y="420" width="335" height="340" as="geometry" />
        </mxCell>
        <mxCell id="19" value="Graphical representation&lt;br&gt;of dataset with matplotlib" style="html=1;shadow=0;dashed=0;shape=mxgraph.bootstrap.topButton;rSize=5;perimeter=none;whiteSpace=wrap;fillColor=#868E96;strokeColor=#DFDFDF;fontColor=#DEE2E6;resizeWidth=1;fontSize=18;rounded=1;" parent="18" vertex="1">
          <mxGeometry width="335" height="220" relative="1" as="geometry" />
        </mxCell>
        <mxCell id="21" value="&lt;font color=&quot;#ffffff&quot;&gt;-&lt;br&gt;-&lt;br&gt;-&lt;/font&gt;" style="text;html=1;align=center;verticalAlign=middle;resizable=0;points=[];autosize=1;strokeColor=none;fillColor=none;fontSize=14;fontColor=#f4f1f1;" parent="18" vertex="1">
          <mxGeometry x="260" y="260" width="30" height="60" as="geometry" />
        </mxCell>
        <mxCell id="23" value="&lt;font color=&quot;#ff0080&quot;&gt;Next&lt;/font&gt;" style="html=1;shadow=0;dashed=1;shape=mxgraph.bootstrap.rrect;rSize=5;strokeColor=#FF0080;strokeWidth=1;fillColor=none;fontColor=#F8F9FA;whiteSpace=wrap;align=center;verticalAlign=middle;spacingLeft=0;fontStyle=0;fontSize=16;spacing=5;rounded=1;" parent="18" vertex="1">
          <mxGeometry x="20" y="290" width="150" height="30" as="geometry" />
        </mxCell>
        <mxCell id="25" value="Select dataset" style="shape=rect;fontColor=#E6E6E6;verticalAlign=middle;spacingLeft=13;fontSize=14;strokeColor=#FFFFFF;align=left;resizeWidth=1;rounded=1;fillColor=none;fontFamily=Times New Roman;" parent="1" vertex="1">
          <mxGeometry x="120" y="450" width="170" height="40" as="geometry" />
        </mxCell>
        <mxCell id="26" value="" style="shape=rect;fillColor=none;strokeColor=#cccccc;resizeHeight=1;rounded=1;" parent="25" vertex="1">
          <mxGeometry x="1" width="40" height="40" relative="1" as="geometry">
            <mxPoint x="-40" as="offset" />
          </mxGeometry>
        </mxCell>
        <mxCell id="27" value="" style="dashed=0;html=1;shape=mxgraph.gmdl.triangle;fillColor=#cccccc;strokeColor=none;" parent="26" vertex="1">
          <mxGeometry x="0.5" y="0.5" width="10" height="5" relative="1" as="geometry">
            <mxPoint x="-5" y="-2.5" as="offset" />
          </mxGeometry>
        </mxCell>
        <mxCell id="31" value="Select SM" style="shape=rect;fontColor=#E6E6E6;verticalAlign=middle;spacingLeft=13;fontSize=14;strokeColor=#FFFFFF;align=left;resizeWidth=1;rounded=1;fillColor=none;fontFamily=Times New Roman;" parent="1" vertex="1">
          <mxGeometry x="120" y="530" width="170" height="40" as="geometry" />
        </mxCell>
        <mxCell id="32" value="" style="shape=rect;fillColor=none;strokeColor=#cccccc;resizeHeight=1;rounded=1;" parent="31" vertex="1">
          <mxGeometry x="1" width="40" height="40" relative="1" as="geometry">
            <mxPoint x="-40" as="offset" />
          </mxGeometry>
        </mxCell>
        <mxCell id="33" value="" style="dashed=0;html=1;shape=mxgraph.gmdl.triangle;fillColor=#cccccc;strokeColor=none;" parent="32" vertex="1">
          <mxGeometry x="0.5" y="0.5" width="10" height="5" relative="1" as="geometry">
            <mxPoint x="-5" y="-2.5" as="offset" />
          </mxGeometry>
        </mxCell>
        <mxCell id="34" value="Select Tendance" style="shape=rect;fontColor=#E6E6E6;verticalAlign=middle;spacingLeft=13;fontSize=14;strokeColor=#FFFFFF;align=left;resizeWidth=1;rounded=1;fillColor=none;fontFamily=Times New Roman;" parent="1" vertex="1">
          <mxGeometry x="120" y="610" width="170" height="40" as="geometry" />
        </mxCell>
        <mxCell id="35" value="" style="shape=rect;fillColor=none;strokeColor=#cccccc;resizeHeight=1;rounded=1;" parent="34" vertex="1">
          <mxGeometry x="1" width="40" height="40" relative="1" as="geometry">
            <mxPoint x="-40" as="offset" />
          </mxGeometry>
        </mxCell>
        <mxCell id="36" value="" style="dashed=0;html=1;shape=mxgraph.gmdl.triangle;fillColor=#cccccc;strokeColor=none;" parent="35" vertex="1">
          <mxGeometry x="0.5" y="0.5" width="10" height="5" relative="1" as="geometry">
            <mxPoint x="-5" y="-2.5" as="offset" />
          </mxGeometry>
        </mxCell>
        <mxCell id="37" value="" style="endArrow=none;html=1;fontFamily=Times New Roman;fontSize=14;fontColor=#FFFFFF;entryX=1;entryY=0.106;entryDx=0;entryDy=0;entryPerimeter=0;strokeWidth=2;exitX=1;exitY=0.823;exitDx=0;exitDy=0;exitPerimeter=0;strokeColor=#FFFFFF;" parent="1" source="41" target="DC9UurBd0dNyP3FcQ84u-1" edge="1">
          <mxGeometry width="50" height="50" relative="1" as="geometry">
            <mxPoint x="270" y="406" as="sourcePoint" />
            <mxPoint x="320" y="370" as="targetPoint" />
          </mxGeometry>
        </mxCell>
        <mxCell id="38" value="" style="endArrow=none;html=1;fontFamily=Times New Roman;fontSize=14;fontColor=#FFFFFF;entryX=1;entryY=0.116;entryDx=0;entryDy=0;entryPerimeter=0;strokeWidth=2;startArrow=none;exitX=0;exitY=1.013;exitDx=0;exitDy=0;exitPerimeter=0;strokeColor=#FFFFFF;" parent="1" source="41" target="DC9UurBd0dNyP3FcQ84u-1" edge="1">
          <mxGeometry width="50" height="50" relative="1" as="geometry">
            <mxPoint x="80" y="410" as="sourcePoint" />
            <mxPoint x="390" y="540" as="targetPoint" />
          </mxGeometry>
        </mxCell>
        <mxCell id="40" value="" style="shape=umlDestroy;rounded=1;strokeColor=#FF0080;fontFamily=Times New Roman;fontSize=14;fontColor=#FFFFFF;fillColor=none;gradientColor=#000000;" parent="1" vertex="1">
          <mxGeometry x="660" y="370" width="30" height="30" as="geometry" />
        </mxCell>
        <mxCell id="43" value="" style="endArrow=none;html=1;fontFamily=Times New Roman;fontSize=14;fontColor=#FFFFFF;entryX=1;entryY=0.116;entryDx=0;entryDy=0;entryPerimeter=0;strokeWidth=2;" parent="1" target="41" edge="1">
          <mxGeometry width="50" height="50" relative="1" as="geometry">
            <mxPoint x="80" y="410" as="sourcePoint" />
            <mxPoint x="700" y="409.88" as="targetPoint" />
          </mxGeometry>
        </mxCell>
        <mxCell id="41" value="&lt;font color=&quot;#ff0080&quot;&gt;&amp;nbsp; FILE&lt;/font&gt;" style="text;html=1;align=left;verticalAlign=middle;resizable=1;points=[];autosize=1;strokeColor=#FFFFFF;fillColor=none;fontSize=14;fontFamily=Times New Roman;fontColor=#FFFFFF;strokeWidth=1;" parent="1" vertex="1">
          <mxGeometry x="80" y="385" width="60" height="25" as="geometry" />
        </mxCell>
        <mxCell id="45" value="GUI TP STATISTIQUE" style="text;html=1;align=center;verticalAlign=middle;resizable=0;points=[];autosize=1;strokeColor=none;fillColor=none;fontSize=14;fontFamily=Times New Roman;fontColor=#FF0080;" parent="1" vertex="1">
          <mxGeometry x="310" y="370" width="160" height="30" as="geometry" />
        </mxCell>
        <mxCell id="47" value="" style="swimlane;startSize=0;rounded=1;strokeColor=#FF0080;strokeWidth=1;fontFamily=Times New Roman;fontSize=14;fontColor=#FF0080;fillColor=none;gradientColor=#000000;" parent="1" vertex="1">
          <mxGeometry x="620" y="380" width="20" height="20" as="geometry" />
        </mxCell>
        <mxCell id="46" value="" style="whiteSpace=wrap;html=1;aspect=fixed;rounded=1;strokeColor=#FF0080;strokeWidth=1;fontFamily=Times New Roman;fontSize=14;fontColor=#FF0080;fillColor=none;gradientColor=#000000;" parent="1" vertex="1">
          <mxGeometry x="630" y="370" width="20" height="20" as="geometry" />
        </mxCell>
        <mxCell id="49" value="" style="endArrow=none;html=1;endSize=12;startArrow=none;startSize=14;startFill=0;edgeStyle=orthogonalEdgeStyle;align=center;verticalAlign=bottom;endFill=0;strokeWidth=2;fontFamily=Times New Roman;fontSize=14;fontColor=#FF0080;strokeColor=#FF0080;" parent="1" edge="1">
          <mxGeometry y="3" relative="1" as="geometry">
            <mxPoint x="580" y="385" as="sourcePoint" />
            <mxPoint x="600" y="385" as="targetPoint" />
            <Array as="points">
              <mxPoint x="580" y="385" />
              <mxPoint x="580" y="385" />
            </Array>
          </mxGeometry>
        </mxCell>
        <mxCell id="50" value="" style="rounded=0;whiteSpace=wrap;html=1;strokeColor=#FF0080;strokeWidth=1;fontFamily=Times New Roman;fontSize=14;fontColor=#FF0080;fillColor=#FF0080;gradientColor=none;editable=0;movable=1;resizable=0;rotatable=1;deletable=1;locked=0;connectable=1;" parent="1" vertex="1">
          <mxGeometry x="90" y="375" width="10" height="5" as="geometry" />
        </mxCell>
        <mxCell id="51" value="" style="rounded=0;whiteSpace=wrap;html=1;strokeColor=#FFFFFF;strokeWidth=1;fontFamily=Times New Roman;fontSize=14;fontColor=#FF0080;fillColor=#FFFFFF;gradientColor=none;resizable=0;editable=0;" parent="1" vertex="1">
          <mxGeometry x="100" y="370" width="10" height="10" as="geometry" />
        </mxCell>
        <mxCell id="52" value="" style="rounded=0;whiteSpace=wrap;html=1;strokeColor=#007FFF;strokeWidth=1;fontFamily=Times New Roman;fontSize=14;fontColor=#FF0080;fillColor=#007FFF;gradientColor=none;resizable=0;editable=0;" parent="1" vertex="1">
          <mxGeometry x="110" y="367" width="10" height="13" as="geometry" />
        </mxCell>
        <mxCell id="53" value="" style="rounded=0;whiteSpace=wrap;html=1;strokeColor=#00FF00;strokeWidth=1;fontFamily=Times New Roman;fontSize=14;fontColor=#FF0080;fillColor=#00FF00;gradientColor=none;resizable=0;editable=0;" parent="1" vertex="1">
          <mxGeometry x="120" y="375" width="10" height="5" as="geometry" />
        </mxCell>
      </root>
    </mxGraphModel>
  </diagram>
</mxfile>
